<?xml version="1.0" encoding="UTF-8" standalone="no"?>
<!DOCTYPE svg PUBLIC "-//W3C//DTD SVG 1.1//EN"
 "http://www.w3.org/Graphics/SVG/1.1/DTD/svg11.dtd">
<!-- Generated by graphviz version 7.0.6 (20230106.0513)
 -->
<!-- Pages: 1 -->
<svg width="410pt" height="260pt"
 viewBox="0.00 0.00 410.00 260.00" xmlns="http://www.w3.org/2000/svg" xmlns:xlink="http://www.w3.org/1999/xlink">
<g id="graph0" class="graph" transform="scale(1 1) rotate(0) translate(4 256)">
<polygon fill="white" stroke="none" points="-4,4 -4,-256 406,-256 406,4 -4,4"/>
<!-- 0 -->
<g id="node1" class="node">
<title>0</title>
<ellipse fill="none" stroke="black" cx="109" cy="-234" rx="27" ry="18"/>
<text text-anchor="middle" x="109" y="-230.3" font-family="Times,serif" font-size="14.00">0</text>
</g>
<!-- 2 -->
<g id="node2" class="node">
<title>2</title>
<ellipse fill="none" stroke="black" cx="27" cy="-162" rx="27" ry="18"/>
<text text-anchor="middle" x="27" y="-158.3" font-family="Times,serif" font-size="14.00">2</text>
</g>
<!-- 0&#45;&gt;2 -->
<g id="edge1" class="edge">
<title>0&#45;&gt;2</title>
<path fill="none" stroke="black" d="M92.8,-219.17C81.12,-209.2 65.14,-195.56 51.85,-184.21"/>
<polygon fill="black" stroke="black" points="54.2,-181.61 44.32,-177.78 49.65,-186.94 54.2,-181.61"/>
</g>
<!-- 4 -->
<g id="node3" class="node">
<title>4</title>
<ellipse fill="none" stroke="black" cx="137" cy="-162" rx="27" ry="18"/>
<text text-anchor="middle" x="137" y="-158.3" font-family="Times,serif" font-size="14.00">4</text>
</g>
<!-- 0&#45;&gt;4 -->
<g id="edge2" class="edge">
<title>0&#45;&gt;4</title>
<path fill="none" stroke="black" d="M115.64,-216.41C118.77,-208.57 122.6,-198.99 126.15,-190.13"/>
<polygon fill="black" stroke="black" points="129.39,-191.46 129.85,-180.88 122.89,-188.86 129.39,-191.46"/>
</g>
<!-- 6 -->
<g id="node4" class="node">
<title>6</title>
<ellipse fill="none" stroke="black" cx="109" cy="-18" rx="27" ry="18"/>
<text text-anchor="middle" x="109" y="-14.3" font-family="Times,serif" font-size="14.00">6</text>
</g>
<!-- 0&#45;&gt;6 -->
<g id="edge3" class="edge">
<title>0&#45;&gt;6</title>
<path fill="none" stroke="black" d="M129.95,-222.24C145.01,-213.22 164.16,-198.8 173,-180 179.81,-165.52 176.68,-159.57 173,-144 164.23,-106.84 142.23,-68.36 126.48,-44.08"/>
<polygon fill="black" stroke="black" points="129.46,-42.24 121,-35.86 123.63,-46.12 129.46,-42.24"/>
</g>
<!-- 7 -->
<g id="node5" class="node">
<title>7</title>
<ellipse fill="none" stroke="black" cx="82" cy="-90" rx="27" ry="18"/>
<text text-anchor="middle" x="82" y="-86.3" font-family="Times,serif" font-size="14.00">7</text>
</g>
<!-- 0&#45;&gt;7 -->
<g id="edge4" class="edge">
<title>0&#45;&gt;7</title>
<path fill="none" stroke="black" d="M105.74,-215.87C101.18,-191.88 92.84,-147.99 87.35,-119.16"/>
<polygon fill="black" stroke="black" points="90.86,-118.85 85.55,-109.68 83.98,-120.15 90.86,-118.85"/>
</g>
<!-- 2&#45;&gt;6 -->
<g id="edge7" class="edge">
<title>2&#45;&gt;6</title>
<path fill="none" stroke="black" d="M27.41,-143.73C28.56,-124.86 32.58,-94.35 46,-72 54.39,-58.04 67.79,-46 80.08,-36.95"/>
<polygon fill="black" stroke="black" points="81.72,-40.07 87.92,-31.49 77.72,-34.33 81.72,-40.07"/>
</g>
<!-- 2&#45;&gt;7 -->
<g id="edge8" class="edge">
<title>2&#45;&gt;7</title>
<path fill="none" stroke="black" d="M39.21,-145.46C46.11,-136.67 54.91,-125.48 62.73,-115.53"/>
<polygon fill="black" stroke="black" points="65.47,-117.71 68.89,-107.68 59.96,-113.38 65.47,-117.71"/>
</g>
<!-- 4&#45;&gt;6 -->
<g id="edge9" class="edge">
<title>4&#45;&gt;6</title>
<path fill="none" stroke="black" d="M133.62,-143.87C128.89,-119.88 120.24,-75.99 114.55,-47.16"/>
<polygon fill="black" stroke="black" points="118.05,-46.81 112.68,-37.67 111.18,-48.16 118.05,-46.81"/>
</g>
<!-- 4&#45;&gt;7 -->
<g id="edge10" class="edge">
<title>4&#45;&gt;7</title>
<path fill="none" stroke="black" d="M124.79,-145.46C117.89,-136.67 109.09,-125.48 101.27,-115.53"/>
<polygon fill="black" stroke="black" points="104.04,-113.38 95.11,-107.68 98.53,-117.71 104.04,-113.38"/>
</g>
<!-- 7&#45;&gt;6 -->
<g id="edge12" class="edge">
<title>7&#45;&gt;6</title>
<path fill="none" stroke="black" d="M88.54,-72.05C91.52,-64.32 95.13,-54.96 98.48,-46.27"/>
<polygon fill="black" stroke="black" points="101.65,-47.79 101.98,-37.2 95.12,-45.27 101.65,-47.79"/>
</g>
<!-- 1 -->
<g id="node6" class="node">
<title>1</title>
<ellipse fill="none" stroke="black" cx="275" cy="-234" rx="27" ry="18"/>
<text text-anchor="middle" x="275" y="-230.3" font-family="Times,serif" font-size="14.00">1</text>
</g>
<!-- 3 -->
<g id="node7" class="node">
<title>3</title>
<ellipse fill="none" stroke="black" cx="266" cy="-90" rx="27" ry="18"/>
<text text-anchor="middle" x="266" y="-86.3" font-family="Times,serif" font-size="14.00">3</text>
</g>
<!-- 1&#45;&gt;3 -->
<g id="edge5" class="edge">
<title>1&#45;&gt;3</title>
<path fill="none" stroke="black" d="M271.8,-215.88C270.02,-205.54 267.97,-192.06 267,-180 265.38,-159.95 265.15,-137.28 265.31,-119.83"/>
<polygon fill="black" stroke="black" points="268.81,-119.99 265.46,-109.94 261.81,-119.89 268.81,-119.99"/>
</g>
<!-- 5 -->
<g id="node8" class="node">
<title>5</title>
<ellipse fill="none" stroke="black" cx="303" cy="-162" rx="27" ry="18"/>
<text text-anchor="middle" x="303" y="-158.3" font-family="Times,serif" font-size="14.00">5</text>
</g>
<!-- 1&#45;&gt;5 -->
<g id="edge6" class="edge">
<title>1&#45;&gt;5</title>
<path fill="none" stroke="black" d="M281.64,-216.41C284.77,-208.57 288.6,-198.99 292.15,-190.13"/>
<polygon fill="black" stroke="black" points="295.39,-191.46 295.85,-180.88 288.89,-188.86 295.39,-191.46"/>
</g>
<!-- 5&#45;&gt;3 -->
<g id="edge11" class="edge">
<title>5&#45;&gt;3</title>
<path fill="none" stroke="black" d="M294.42,-144.76C290.08,-136.55 284.7,-126.37 279.79,-117.09"/>
<polygon fill="black" stroke="black" points="283.01,-115.69 275.24,-108.49 276.82,-118.96 283.01,-115.69"/>
</g>
<!-- 8 -->
<g id="node9" class="node">
<title>8</title>
<ellipse fill="none" stroke="black" cx="375" cy="-162" rx="27" ry="18"/>
<text text-anchor="middle" x="375" y="-158.3" font-family="Times,serif" font-size="14.00">8</text>
</g>
<!-- 9 -->
<g id="node10" class="node">
<title>9</title>
<ellipse fill="none" stroke="black" cx="375" cy="-234" rx="27" ry="18"/>
<text text-anchor="middle" x="375" y="-230.3" font-family="Times,serif" font-size="14.00">9</text>
</g>
<!-- 9&#45;&gt;8 -->
<g id="edge13" class="edge">
<title>9&#45;&gt;8</title>
<path fill="none" stroke="black" d="M375,-215.7C375,-208.41 375,-199.73 375,-191.54"/>
<polygon fill="black" stroke="black" points="378.5,-191.62 375,-181.62 371.5,-191.62 378.5,-191.62"/>
</g>
</g>
</svg>
