<?xml version="1.0" encoding="UTF-8" standalone="no"?>
<!DOCTYPE svg PUBLIC "-//W3C//DTD SVG 1.1//EN"
 "http://www.w3.org/Graphics/SVG/1.1/DTD/svg11.dtd">
<!-- Generated by graphviz version 7.0.6 (20230106.0513)
 -->
<!-- Pages: 1 -->
<svg width="327pt" height="260pt"
 viewBox="0.00 0.00 327.00 260.00" xmlns="http://www.w3.org/2000/svg" xmlns:xlink="http://www.w3.org/1999/xlink">
<g id="graph0" class="graph" transform="scale(1 1) rotate(0) translate(4 256)">
<polygon fill="white" stroke="none" points="-4,4 -4,-256 323,-256 323,4 -4,4"/>
<!-- 0 -->
<g id="node1" class="node">
<title>0</title>
<ellipse fill="none" stroke="black" cx="54" cy="-234" rx="27" ry="18"/>
<text text-anchor="middle" x="54" y="-230.3" font-family="Times,serif" font-size="14.00">0</text>
</g>
<!-- 2 -->
<g id="node2" class="node">
<title>2</title>
<ellipse fill="none" stroke="black" cx="27" cy="-162" rx="27" ry="18"/>
<text text-anchor="middle" x="27" y="-158.3" font-family="Times,serif" font-size="14.00">2</text>
</g>
<!-- 0&#45;&gt;2 -->
<g id="edge1" class="edge">
<title>0&#45;&gt;2</title>
<path fill="none" stroke="black" d="M47.46,-216.05C44.48,-208.32 40.87,-198.96 37.52,-190.27"/>
<polygon fill="black" stroke="black" points="40.88,-189.27 34.02,-181.2 34.35,-191.79 40.88,-189.27"/>
</g>
<!-- 4 -->
<g id="node3" class="node">
<title>4</title>
<ellipse fill="none" stroke="black" cx="99" cy="-162" rx="27" ry="18"/>
<text text-anchor="middle" x="99" y="-158.3" font-family="Times,serif" font-size="14.00">4</text>
</g>
<!-- 0&#45;&gt;4 -->
<g id="edge2" class="edge">
<title>0&#45;&gt;4</title>
<path fill="none" stroke="black" d="M64.21,-217.12C69.68,-208.61 76.54,-197.94 82.72,-188.32"/>
<polygon fill="black" stroke="black" points="85.55,-190.4 88.01,-180.09 79.66,-186.61 85.55,-190.4"/>
</g>
<!-- 7 -->
<g id="node7" class="node">
<title>7</title>
<ellipse fill="none" stroke="black" cx="88" cy="-90" rx="27" ry="18"/>
<text text-anchor="middle" x="88" y="-86.3" font-family="Times,serif" font-size="14.00">7</text>
</g>
<!-- 2&#45;&gt;7 -->
<g id="edge5" class="edge">
<title>2&#45;&gt;7</title>
<path fill="none" stroke="black" d="M40.24,-145.81C48.15,-136.73 58.38,-125 67.33,-114.72"/>
<polygon fill="black" stroke="black" points="69.86,-117.14 73.8,-107.3 64.59,-112.54 69.86,-117.14"/>
</g>
<!-- 4&#45;&gt;7 -->
<g id="edge8" class="edge">
<title>4&#45;&gt;7</title>
<path fill="none" stroke="black" d="M96.28,-143.7C95.12,-136.32 93.74,-127.52 92.44,-119.25"/>
<polygon fill="black" stroke="black" points="95.93,-118.93 90.92,-109.6 89.02,-120.02 95.93,-118.93"/>
</g>
<!-- 1 -->
<g id="node4" class="node">
<title>1</title>
<ellipse fill="none" stroke="black" cx="192" cy="-234" rx="27" ry="18"/>
<text text-anchor="middle" x="192" y="-230.3" font-family="Times,serif" font-size="14.00">1</text>
</g>
<!-- 3 -->
<g id="node5" class="node">
<title>3</title>
<ellipse fill="none" stroke="black" cx="187" cy="-90" rx="27" ry="18"/>
<text text-anchor="middle" x="187" y="-86.3" font-family="Times,serif" font-size="14.00">3</text>
</g>
<!-- 1&#45;&gt;3 -->
<g id="edge3" class="edge">
<title>1&#45;&gt;3</title>
<path fill="none" stroke="black" d="M188.75,-215.89C186.95,-205.54 184.91,-192.06 184,-180 182.49,-159.93 183.3,-137.26 184.45,-119.82"/>
<polygon fill="black" stroke="black" points="187.93,-120.16 185.19,-109.93 180.95,-119.64 187.93,-120.16"/>
</g>
<!-- 5 -->
<g id="node6" class="node">
<title>5</title>
<ellipse fill="none" stroke="black" cx="220" cy="-162" rx="27" ry="18"/>
<text text-anchor="middle" x="220" y="-158.3" font-family="Times,serif" font-size="14.00">5</text>
</g>
<!-- 1&#45;&gt;5 -->
<g id="edge4" class="edge">
<title>1&#45;&gt;5</title>
<path fill="none" stroke="black" d="M198.64,-216.41C201.77,-208.57 205.6,-198.99 209.15,-190.13"/>
<polygon fill="black" stroke="black" points="212.39,-191.46 212.85,-180.88 205.89,-188.86 212.39,-191.46"/>
</g>
<!-- 5&#45;&gt;3 -->
<g id="edge6" class="edge">
<title>5&#45;&gt;3</title>
<path fill="none" stroke="black" d="M212.18,-144.41C208.44,-136.48 203.87,-126.78 199.65,-117.84"/>
<polygon fill="black" stroke="black" points="202.84,-116.39 195.41,-108.84 196.51,-119.38 202.84,-116.39"/>
</g>
<!-- 6 -->
<g id="node8" class="node">
<title>6</title>
<ellipse fill="none" stroke="black" cx="88" cy="-18" rx="27" ry="18"/>
<text text-anchor="middle" x="88" y="-14.3" font-family="Times,serif" font-size="14.00">6</text>
</g>
<!-- 7&#45;&gt;6 -->
<g id="edge7" class="edge">
<title>7&#45;&gt;6</title>
<path fill="none" stroke="black" d="M88,-71.7C88,-64.41 88,-55.73 88,-47.54"/>
<polygon fill="black" stroke="black" points="91.5,-47.62 88,-37.62 84.5,-47.62 91.5,-47.62"/>
</g>
<!-- 9 -->
<g id="node9" class="node">
<title>9</title>
<ellipse fill="none" stroke="black" cx="292" cy="-234" rx="27" ry="18"/>
<text text-anchor="middle" x="292" y="-230.3" font-family="Times,serif" font-size="14.00">9</text>
</g>
<!-- 8 -->
<g id="node10" class="node">
<title>8</title>
<ellipse fill="none" stroke="black" cx="292" cy="-162" rx="27" ry="18"/>
<text text-anchor="middle" x="292" y="-158.3" font-family="Times,serif" font-size="14.00">8</text>
</g>
<!-- 9&#45;&gt;8 -->
<g id="edge9" class="edge">
<title>9&#45;&gt;8</title>
<path fill="none" stroke="black" d="M292,-215.7C292,-208.41 292,-199.73 292,-191.54"/>
<polygon fill="black" stroke="black" points="295.5,-191.62 292,-181.62 288.5,-191.62 295.5,-191.62"/>
</g>
</g>
</svg>
